<?xml version="1.0" encoding="UTF-8" standalone="no"?>
<!-- Created with Inkscape (http://www.inkscape.org/) -->

<svg
   version="1.1"
   id="svg1"
   width="1024"
   height="1024"
   viewBox="0 0 1024 1024"
   sodipodi:docname="Logo.svg"
   inkscape:version="1.4.2 (f4327f4, 2025-05-13)"
   xmlns:inkscape="http://www.inkscape.org/namespaces/inkscape"
   xmlns:sodipodi="http://sodipodi.sourceforge.net/DTD/sodipodi-0.dtd"
   xmlns="http://www.w3.org/2000/svg"
   xmlns:svg="http://www.w3.org/2000/svg">
  <defs
     id="defs1" />
  <sodipodi:namedview
     id="namedview1"
     pagecolor="#ffffff"
     bordercolor="#000000"
     borderopacity="0.25"
     inkscape:showpageshadow="2"
     inkscape:pageopacity="0.0"
     inkscape:pagecheckerboard="0"
     inkscape:deskcolor="#d1d1d1"
     showgrid="false"
     inkscape:zoom="0.78808594"
     inkscape:cx="505.02107"
     inkscape:cy="465.05081"
     inkscape:window-width="1920"
     inkscape:window-height="1009"
     inkscape:window-x="1912"
     inkscape:window-y="-8"
     inkscape:window-maximized="1"
     inkscape:current-layer="layer1" />
  <g
     inkscape:groupmode="layer"
     inkscape:label="Image"
     id="g1"
     style="display:none">
    <g
       id="g4"
       style="display:none;stroke-width:0;stroke-dasharray:none"
       transform="translate(71.05824,-88.8228)">
      <path
         style="fill:#bd6b3e;stroke-width:0;stroke-dasharray:none"
         d="m 508.22794,813.70034 c -3.13058,-12.87681 8.30612,-37.15076 -9.96985,-42.04704 -3.1065,12.62677 3.25985,31.71332 -14.06229,35.62713 11.49103,-6.92868 11.44652,-33.35999 -1.92566,-20.61668 8.33446,-5.20279 15.41784,-30.29362 1.84955,-23.50905 -6.43547,16.18375 -7.92596,33.07431 -24.41702,42.85814 -4.65015,12.5346 -0.20929,-13.78197 8.4292,-14.52715 12.88313,-19.36333 -10.40255,-9.89507 -18.03085,-2.83739 -18.4646,18.80054 0.29434,-12.59047 11.55948,-13.30506 17.4409,-3.04978 14.18041,-28.56419 19.69162,-35.42063 15.12881,6.90597 21.57438,28.50355 36.1451,39.37484 9.04418,5.21502 31.03649,4.69539 31.08216,14.96535 -12.47126,-6.21403 -36.42906,-15.71007 -35.9195,5.77322 -7.26296,2.70657 2.77176,23.23309 -4.43194,13.66432 z m 62.88263,-33.15785 c -14.32171,-7.57721 -21.66176,-25.85482 -39.82322,-25.10792 -1.34329,13.15512 31.4174,24.22902 7.30081,18.10038 -12.62644,-15.0853 -0.57612,19.2906 -11.05154,1.55655 0.68239,-9.80947 10e-4,-18.61851 -8.70646,-24.56821 -8.90291,-12.81474 12.18132,-5.01573 17.00472,-0.96028 18.23343,2.70484 29.3155,19.71089 38.73666,32.9874 1.98028,5.27993 -4.07895,-2.96918 -3.46097,-2.00792 z m -136.95072,-0.41745 c 14.81306,-3.63779 14.42827,-29.19309 -2.48793,-13.44085 -3.3018,9.52016 -27.30478,18.87336 -9.41767,6.38846 4.28284,-21.94043 37.96662,-13.70894 40.9056,-35.03304 15.17488,-7.6602 2.16077,17.82688 4.12956,26.21061 -8.2324,15.43533 2.78482,-20.08107 -12.76059,-5.14782 -6.65142,6.75877 -6.6037,23.65932 -20.36897,21.02264 z m 83,-9.52705 c -0.93145,-7.86493 -30.33159,-23.53705 -15.11051,-25.75069 2.85108,7.367 23.7793,21.87065 15.11051,25.75069 z m -190,-5.19466 c -15.46498,-12.6204 -31.22798,-25.55373 -43.29811,-41.55851 7.77406,-16.17997 28.62056,-24.74817 42.88241,-35.9203 25.21933,-14.89348 48.51868,-34.80351 77.21739,-42.49479 24.93253,-4.32652 50.35909,0.83719 72.76232,12.16605 20.35982,11.24059 44.20685,8.31821 65.74244,15.07984 25.85919,10.41081 0.55285,28.54849 -16.35876,22.10439 -23.4848,0.15337 -48.46749,-8.18157 -70.745,2.69206 15.49033,-0.97299 33.99902,-1.35108 50.44915,1.90776 18.6011,-0.16241 40.79214,5.33958 55.61864,-8.77512 28.517,-2.13678 46.82616,-25.95853 70.25621,-38.87084 13.2144,-8.17323 25.2746,5.63328 10.37467,14.57454 -17.64104,18.52921 -35.63719,38.11819 -58.60447,49.96443 -23.69994,7.49121 -46.94113,16.74106 -71.04736,22.81899 -35.76727,-2.96619 -69.69942,-19.35671 -105.93392,-19.2355 -31.5714,2.65376 -51.1407,30.38408 -72.97199,49.73207 -2.30627,-1.08708 -4.29458,-2.69907 -6.34362,-4.18507 z m 95,-4.13846 c -1.48975,-9.20544 17.98317,-23.56448 -1.53059,-15.22318 -6.1184,4.42863 -14.50578,16.24207 -6.72912,1.96329 6.23071,-12.96177 22.71353,-5.06002 31.97647,-10.62167 10.48698,-13.04178 14.15104,4.75755 -0.36113,6.91561 -12.15127,0.21776 -20.38167,11.92264 -23.15593,19.90982 z m 140.73145,-2.34363 c 2.78004,-15.08415 -35.15959,-11.06402 -21.31703,-22.22643 8.36927,6.92481 26.948,8.63232 21.31703,22.22643 z m -3.55477,-72.92994 c 15.33931,-10.11978 31.21511,-19.96083 43.89884,-33.67591 3.53472,-12.12784 39.24732,-15.5631 20.33859,-1.65271 -19.96626,14.24465 -38.06143,34.59214 -64.00882,36.57064 z m -1.51001,-6.05326 c 10.85212,-12.02213 24.67635,-29.522 39.94026,-38.91437 19.8484,0.18275 -10.69787,19.91764 -16.08625,26.29903 -7.10449,4.59165 -15.36237,13.1125 -23.85401,12.61534 z m -5.97676,-7.70477 c -3.49348,-6.69232 15.46853,-21.51305 23.46184,-25.67554 11.55695,1.35754 -18.13708,34.02936 -23.46184,25.67554 z M 523.6477,489.46735 c 20.17403,-14.52863 46.7617,-31.94242 44.38627,-60.35266 0.0356,-19.03168 -21.03653,-31.2104 -38.14319,-24.59424 -20.11894,2.23978 -31.00206,26.25144 -43.08938,33.96959 2.31416,-17.78131 18.64971,-32.32312 34.39994,-40.1315 19.06234,-10.06765 48.57665,-6.45377 56.07671,16.57736 11.47954,25.0216 -6.10048,50.97482 -25.28711,66.24177 -32.0464,23.86901 -52.50754,25.4693 -28.34324,8.28968 z m -9.98785,46.13737 c 7.52048,-7.27688 -5.18324,7.12383 0,0 z m -11,-4 c 7.52048,-7.27688 -5.18324,7.12383 0,0 z m -36.5,-16.94332 c -21.6274,-24.13004 -57.63011,-37.81446 -67.2987,-71.16407 -7.17997,-22.72205 8.94008,-52.326 34.7987,-50.31429 17.21863,-0.53776 32.33293,9.28863 44.48016,20.55937 -7.57887,11.8625 -22.32064,-13.09825 -35.52518,-9.97728 -21.59309,-5.38913 -39.50269,19.09516 -31.8157,38.76957 11.63061,32.85259 47.84197,45.26282 70.12693,69.31198 10.28494,2.39229 -0.60364,20.38132 -5.41857,12.28308 z m 45.95821,6.69332 c 15.34075,-14.76409 -14.19992,14.93593 0,0 z m -33.20821,-14.9182 c -8.17353,-17.79203 25.71189,-28.89341 28.59373,-47.77917 3.47892,-18.33957 -16.53645,-6.92478 -20.2954,-5.61155 -13.5149,-17.52544 -24.39467,10.0821 -9.28091,18.9105 6.40432,5.71187 11.89072,11.01862 2.87244,17.07178 -9.20684,-6.98798 -20.00897,-20.45848 -20.12284,-33.86546 -0.82726,-18.0343 22.54217,-19.26331 29.4952,-8.63131 17.12533,-23.85002 39.76777,14.16711 20.10258,28.50182 -10.55676,7.74803 -20.33442,33.36908 -31.3648,31.40339 z m 13.67958,-0.96798 c -5.04016,-13.20946 12.83302,-12.74797 8.97809,-2.81746 -2.7152,2.01314 -6.87913,10.11118 -8.97809,2.81746 z m -82.02459,-30.11382 c -6.26723,-7.08353 8.10432,7.37937 0,0 z m 71.0321,-80 c -9.63633,-10.37441 11.05884,10.42332 0,0 z"
         id="path3"
         sodipodi:nodetypes="cccccccccccccccccccccccccccccccccccccccccccccccccccccccccccccccccccccccccccccccccccccccccccccccccccccccccccccc" />
      <path
         style="fill:#798b3f;stroke-width:0;stroke-dasharray:none"
         d="M 463.15985,841.02598 C 333.19706,831.14233 218.66534,722.74993 202.74524,593.15568 187.75285,490.11969 232.99081,381.13935 317.44594,319.91035 c 104.14633,-79.13807 263.12493,-74.39974 360.53085,13.79733 83.29314,70.71561 120.7091,190.5593 90.05893,295.77839 -28.43887,105.85399 -120.98121,191.63647 -229.83724,208.23102 -24.78541,4.35844 -49.98142,4.40785 -75.03863,3.30889 z m 64.5,-15.90171 C 644.22447,809.8416 744.12315,712.17872 760.78519,595.56914 778.9817,484.59909 721.98968,365.73006 622.64083,312.3166 523.58989,256.26948 390.021,269.76341 306.28386,347.69221 234.28229,411.45362 199.69422,513.8441 219.86359,608.08469 c 21.64933,109.80941 116.07012,201.00184 227.34328,216.26748 26.62341,3.93741 53.74155,3.70528 80.45298,0.7721 z m 6.75,-160.68549 c -1.35422,-12.18897 -35.94945,-41.60643 -15.58932,-15.93863 8.80903,23.30951 -7.92841,7.11432 -12.38628,-3.43399 -6.93463,3.92367 0.27273,27.62529 -10.77631,7.28576 -0.58038,-13.85098 -17.81802,-25.44588 -11.41426,-3.96852 -17.94315,11.07406 9.70086,-50.93467 0.3647,-28.97313 -5.82518,-1.77482 -15.92036,38.70025 -26.99247,21.66404 28.11268,-26.21011 13.76893,-71.01533 38.25732,-99.7517 22.74171,-33.55933 62.51608,-50.77434 85.23587,-84.101 20.98063,-33.45453 -11.18767,-83.68725 -50.91727,-67.76409 -23.66782,2.87265 -40.1696,33.23178 -50.26193,42.55005 -2.58923,-27.32662 26.33411,-48.0602 47.83993,-60.55136 34.88631,-16.12079 82.8146,7.81344 84.25799,48.03463 3.78317,41.8655 -31.21004,74.79584 -66.54583,90.52029 -30.93825,18.24431 -56.68925,51.29594 -54.91307,88.70609 2.70311,-10.41422 13.40774,-47.41668 11.49763,-15.41578 -8.96671,31.67887 24.69328,47.88062 36.23401,71.78587 1.62786,3.13116 1.2395,9.66789 -3.89071,9.35147 z M 464.35867,535.68822 c -29.16897,-31.27219 -79.66519,-42.05447 -94.47991,-86.15913 -15.04752,-36.28944 11.96299,-84.17304 53.0719,-83.13021 21.80705,-0.74816 66.33127,18.92198 57.55902,40.39296 -22.62241,-19.91216 -64.32608,-31.33285 -83.65683,0.24609 -19.41793,35.7045 11.86533,72.17565 40.84191,90.71636 11.26513,9.83358 48.66679,33.05211 31.2274,43.28206 l -2.47307,-3.25995 z"
         id="path2"
         sodipodi:nodetypes="ccccccccccccccccccccccccccccccccccccccccc" />
    </g>
  </g>
  <g
     inkscape:groupmode="layer"
     id="layer1"
     inkscape:label="Image 1"
     style="display:inline">
    <ellipse
       style="fill:#ffffff;stroke:#225500;stroke-width:9.711;stroke-dasharray:none"
       id="path18"
       cx="-607.41229"
       cy="214.217"
       rx="276.90744"
       ry="272.39648"
       transform="rotate(-124.64099)"
       inkscape:export-filename="Logo.png"
       inkscape:export-xdpi="96"
       inkscape:export-ydpi="96" />
    <path
       style="fill:#bd6b3e;fill-opacity:1;stroke:#803300;stroke-width:0;stroke-dasharray:none"
       d="m 345.00086,562.93406 c -3.7205,-2.52725 -14.2929,-11.3015 -23.7638,-19.7219 -6.4796,-5.761 -15.6763,-15.61745 -19.7851,-21.20463 -1.8272,-2.4845 -1.9099,-2.81171 -1.0979,-4.34151 1.6784,-3.16177 10.3503,-11.72441 16.6984,-16.488 3.5121,-2.6354 16.3781,-11.41892 28.5913,-19.51895 41.7856,-27.71315 56.3458,-35.84703 71.1854,-39.76684 5.0678,-1.33862 6.9291,-1.47471 20.1752,-1.47507 15.5868,-4.4e-4 19.0813,0.39193 31.2291,3.50637 7.3814,1.89242 14.9851,4.74761 25.8712,9.71468 9.2515,4.2212 15.4707,5.80693 37.7497,9.62528 22.3643,3.83294 26.4507,4.77695 30.2079,6.97836 7.7782,4.55734 9.1849,11.20135 3.4655,16.36843 -5.9679,5.39165 -12.2889,6.06559 -34.625,3.69167 -19.4139,-2.06333 -36.2815,-2.4596 -44.7287,-1.05081 -6.7906,1.13252 -10.0723,2.17628 -6.9789,2.21965 3.8437,0.0539 23.8764,1.40409 39.0186,2.62981 19.9024,1.61106 34.8428,1.73146 41.5564,0.33489 3.0789,-0.64048 7.1188,-2.20704 11.4461,-4.43846 4.0076,-2.06657 9.1802,-4.112 12.9071,-5.10396 12.6202,-3.35901 20.3694,-7.61594 40.6777,-22.34591 18.973,-13.76142 25.3902,-17.37477 30.857,-17.37477 5.0327,0 8.7961,3.3197 8.7961,7.75911 0,2.81391 -3.6075,7.05576 -18.5244,21.78198 -19.2516,19.00545 -33.1002,30.47189 -42.6187,35.28757 -6.755,3.41759 -38.6643,14.40931 -61.6227,21.22703 -16.2314,4.82007 -19.5076,4.52732 -61.5415,-5.49909 -28.1726,-6.72006 -35.5279,-8.14368 -45.4751,-8.80172 -25.9331,-1.71557 -38.5298,4.22407 -67.6291,31.88892 -8.6079,8.18356 -17.7963,16.26698 -18.4906,16.26698 -0.2131,0 -1.8112,-0.9671 -3.5512,-2.14911 z"
       id="path6" />
    <path
       style="fill:#225500;stroke:#225500;stroke-width:0;stroke-dasharray:none"
       d="m 484.81116,314.11296 c -23.71,-26.31286 -63.2486,-42.62655 -71.3959,-79.90818 -5.7677,-27.24104 21.6611,-53.83472 48.6503,-43.76168 12.0557,0.0323 49.1739,28.81502 17.5923,18.66584 -18.8529,-19.86179 -58.0232,-6.60234 -54.1111,22.51403 9.0519,38.38079 51.9555,52.11411 74.8854,80.26006 -0.073,14.18584 -9.4965,10.97644 -15.621,2.22993 z"
       id="path8" />
    <path
       style="fill:#225500;stroke:#225500;stroke-width:0;stroke-dasharray:none"
       d="m 482.33546,334.33537 c -30.1343,-32.143 -81.0563,-44.94926 -97.1382,-89.27882 -14.8388,-37.11765 14.3656,-86.24781 56.1944,-82.70832 19.8339,-1.17553 56.5403,19.07094 56.2025,32.77212 -6.4208,13.71797 -32.6175,-18.05956 -49.8119,-11.23699 -30.7828,-1.28498 -50.1592,35.90273 -36.3236,62.08138 14.461,35.41868 53.5335,49.74048 76.0498,78.38618 3.662,2.99727 0.6351,17.20594 -5.173,9.98445 z"
       id="path9" />
    <path
       style="fill:#225500;stroke:#225500;stroke-width:0;stroke-dasharray:none"
       d="m 549.83416,459.18716 c -6.0656,-12.44846 -28.9887,-35.52287 -12.8055,-7.97973 -2.891,13.87864 -20.5945,-25.7405 -19.6787,4.20561 -7.1852,-6.97793 -17.2046,-36.85153 -20.1648,-9.9732 -9.8554,-6.33778 10.2792,-44.00678 -7.8713,-14.31576 -8.4891,17.61792 -22.1108,4.329 -6.5466,-7.24596 14.7855,-32.2192 9.866,-73.03017 38.0766,-98.84528 24.4515,-28.11036 60.2733,-46.01597 78.9572,-79.0108 11.2895,-28.53029 -11.4913,-67.56029 -44.3478,-62.26472 -27.3851,-4.39465 -46.9927,38.3326 -60.1822,40.03823 4.7727,-31.10074 35.5633,-55.46264 65.2936,-61.09546 36.8631,-5.60892 74.2266,28.41462 67.1708,66.28376 -4.7936,42.52766 -45.3959,65.8516 -78.4094,85.77637 -21.113,16.59949 -40.2276,40.93364 -41.597,68.23624 4.86,-12.05738 12.1813,-22.96253 9.6489,-1.86639 -5.5793,32.02253 29.5995,47.68407 37.8137,74.57967 -1.1749,0.13322 -4.2457,9.75185 -5.3575,3.47742 z"
       id="path10" />
    <path
       style="fill:#225500;stroke:#225500;stroke-width:0;stroke-dasharray:none"
       d="m 528.68216,295.72384 c 18.3628,-21.52855 54.4636,-34.74261 54.2119,-67.85008 1.7725,-35.31567 -47.2927,-35.30516 -62.5742,-10.86475 -6.6578,7.22485 -25.1307,26.79739 -13.4557,4.55439 11.6488,-18.09971 32.0594,-35.08405 54.8545,-31.75656 26.9845,-2.6112 42.8894,32.90527 31.2689,55.06152 -11.9562,25.10156 -36.7349,45.76606 -63.7859,51.63214 z"
       id="path11" />
    <path
       style="fill:#552200;stroke:#225500;stroke-width:0;stroke-dasharray:none"
       d="m 449.37606,576.19892 c 0,-0.16738 1.0901,-0.86046 2.4225,-1.54018 6.9659,-3.55376 10.4994,-12.5815 6.3826,-16.30714 -1.2356,-1.1182 -1.3617,-1.10666 -4.1668,0.38142 -1.5909,0.84399 -5.2195,3.83143 -8.0635,6.63875 -5.3446,5.27561 -11.5564,9.49497 -13.4318,9.1235 -0.8477,-0.16791 -0.4765,-0.87939 1.766,-3.38484 1.5616,-1.74473 4.0285,-5.06329 5.4819,-7.37458 1.4658,-2.33084 3.6994,-4.8964 5.0156,-5.76081 1.3051,-0.85716 7.6547,-4.12243 14.1102,-7.25616 12.7935,-6.21039 15.2742,-7.98489 18.4209,-13.17687 2.4894,-4.10751 4.347,-5.31452 6.8157,-4.42865 1.7125,0.61451 1.7262,0.66654 1.5825,5.98507 -0.1542,5.70031 -3.4241,23.14588 -4.5493,24.2711 -0.9405,0.94047 -2.6019,-3.2455 -2.6019,-6.55552 0,-3.24362 -0.9299,-5.05426 -2.5958,-5.05426 -2.1178,0 -7.1409,5.92867 -10.7729,12.71504 -4.3117,8.05622 -6.3508,10.53798 -9.3408,11.36837 -2.4216,0.67257 -6.4751,0.89527 -6.4751,0.35576 z"
       id="path12" />
    <path
       style="fill:#552200;stroke:#225500;stroke-width:0;stroke-dasharray:none"
       d="m 524.84856,611.04834 c -0.5786,-0.69718 -0.9276,-5.6478 -1.2409,-17.59897 -0.2397,-9.14589 -0.7362,-17.3537 -1.1034,-18.23957 -0.704,-1.6983 -5.4504,-6.31994 -6.4906,-6.31994 -1.2926,0 -2.0237,2.89975 -2.9245,11.59929 -1.2044,11.6316 -2.201,15.05403 -5.3917,18.51544 -2.3951,2.59843 -5.9428,4.7108 -6.6776,3.97602 -0.1871,-0.18716 0.6759,-1.67154 1.9179,-3.29863 4.4058,-5.77195 6.0508,-15.6112 3.1465,-18.82044 -0.9581,-1.05873 -1.6431,-1.22568 -3.6874,-0.89878 -2.4006,0.38388 -2.4647,0.35067 -1.4618,-0.75752 1.5413,-1.70315 4.188,-7.99273 5.2393,-12.45086 1.1839,-5.02036 1.173,-5.24139 -0.3324,-6.7468 -1.4974,-1.49744 -3.9686,-1.65071 -5.2912,-0.32816 -0.5174,0.5174 -2.2593,4.89698 -3.8708,9.73239 -3.2112,9.63528 -6.202,16.31818 -9.3615,20.91801 -2.3957,3.48796 -12.4562,14.08916 -13.3704,14.08916 -1.0032,0 0.044,-4.88476 1.8786,-8.7626 0.916,-1.93624 3.6094,-5.61708 5.9855,-8.17964 4.6897,-5.05784 6.6821,-9.24893 4.9531,-10.41926 -1.4864,-1.00617 -6.8358,-0.0881 -10.9865,1.88544 -2.1339,1.0146 -6.7348,4.02004 -10.2242,6.67875 -3.4895,2.65872 -6.5587,4.83525 -6.8204,4.83674 -2.0453,0.0116 2.5275,-7.4926 7.6832,-12.60859 3.5449,-3.5175 5.2115,-4.61479 10.2361,-6.73939 10.0137,-4.2342 12.4771,-7.59241 15.9098,-21.68928 2.046,-8.40219 4.1289,-14.15706 5.1239,-14.15706 1.4309,0 12.1772,11.34693 18.8027,19.85356 9.4663,12.15391 14.4969,17.54112 18.3097,19.60764 1.6952,0.91874 7.021,2.8461 11.8352,4.28302 13.3603,3.98769 18.3448,6.63231 17.3561,9.20861 -0.5369,1.39932 -1.3324,1.26072 -8.7068,-1.51717 -8.6965,-3.27589 -14.1309,-4.23069 -18.3367,-3.22173 -3.8068,0.91323 -6.6064,3.75926 -7.6411,7.76783 -0.384,1.4876 -1.2451,4.32618 -1.9136,6.30795 -0.9731,2.88461 -1.1382,4.60622 -0.8277,8.63245 0.3983,5.16464 -0.1578,6.73999 -1.7164,4.86209 z"
       id="path13" />
    <path
       style="fill:#225500;stroke:#225500;stroke-width:0;stroke-dasharray:none"
       d="m 531.79246,564.96752 c -0.4075,-0.76151 -4.5226,-5.28077 -9.1446,-10.04281 -8.616,-8.87696 -9.8977,-10.75028 -8.504,-12.42955 2.3386,-2.81783 2.6994,-2.59651 10.6929,6.55914 8.5513,9.79453 10.6065,13.0138 9.9578,15.59809 -0.5157,2.05485 -1.9883,2.20942 -3.0021,0.31513 z"
       id="path14" />
    <path
       style="fill:#552200;stroke:#225500;stroke-width:0;stroke-dasharray:none"
       d="m 583.36816,574.55661 c -8.9917,-8.12329 -22.8983,-19.42323 -25.3569,-20.60389 -1.1418,-0.54834 -3.6384,-1.32469 -5.548,-1.72524 -6.6581,-1.39655 -6.1934,1.64731 1.4533,9.51782 2.6312,2.7082 5.8054,6.03203 7.0538,7.3863 l 2.2698,2.4623 -2.2108,-0.44246 c -1.216,-0.24335 -3.959,-1.28001 -6.0955,-2.30369 -6.0562,-2.90175 -6.5694,-2.6623 -7.1665,3.34381 -0.2029,2.04137 -0.6545,3.74783 -1.0034,3.79214 -1.4528,0.18444 -2.9626,-4.04645 -3.5105,-9.83713 -0.7107,-7.51181 -2.309,-11.78721 -6.2085,-16.60739 -5.0871,-6.28823 -5.8299,-8.74662 -2.9713,-9.83347 2.4917,-0.94734 7.2998,0.28252 16.437,4.20444 17.593,7.55133 20.7321,9.68916 29.2262,19.90413 5.2482,6.31148 11.1212,14.57013 11.1212,15.63864 0,1.59416 -1.1057,0.87133 -7.4899,-4.89631 z"
       id="path15" />
    <path
       style="fill:#552200;stroke:#225500;stroke-width:0;stroke-dasharray:none"
       d="m 577.65636,550.44997 c -1.4442,-2.31251 -5.826,-4.89164 -12.3306,-7.25779 -7.2318,-2.63069 -10.3094,-4.27109 -10.8999,-5.80976 -0.523,-1.36291 1.2676,-4.02168 2.7085,-4.02168 1.5177,0 11.5762,4.92573 16.8159,8.23492 3.4231,2.16188 4.3026,3.06746 4.8327,4.97597 1.1424,4.11317 0.4686,6.43268 -1.1266,3.87834 z"
       id="path16" />
    <path
       style="fill:#552200;stroke:#225500;stroke-width:0;stroke-dasharray:none"
       d="m 438.18156,555.95398 c 0.2293,-2.55414 1.15,-5.43406 2.91,-9.10182 3.0022,-6.2569 3.1986,-7.42122 1.147,-6.80066 -2.7953,0.84548 -7.4423,3.67163 -11.042,6.71532 -2.0097,1.69927 -3.8735,3.08959 -4.1416,3.08959 -1.4789,0 3.1137,-8.04105 6.0802,-10.6457 2.5059,-2.2002 5.1069,-2.854 16.5581,-4.1622 8.1196,-0.92759 10.505,-1.72441 14.7052,-4.91216 3.0258,-2.2964 5.2558,-2.21524 6.3708,0.23186 0.8679,1.9049 -0.2871,4.80601 -2.6549,6.66854 -1.8879,1.48502 -7.9783,3.93738 -9.7785,3.93738 -0.629,0 -2.8871,0.87117 -5.0179,1.93593 -4.2872,2.14237 -8.9755,6.82551 -12.9877,12.97361 l -2.4842,3.80669 z"
       id="path17" />
    <text
       xml:space="preserve"
       style="font-style:normal;font-variant:normal;font-weight:bold;font-stretch:normal;font-size:129.844px;font-family:'Frank Ruehl CLM';-inkscape-font-specification:'Frank Ruehl CLM, Bold';font-variant-ligatures:normal;font-variant-caps:normal;font-variant-numeric:normal;font-variant-east-asian:normal;text-align:start;writing-mode:lr-tb;direction:ltr;text-anchor:start;fill:#552200;fill-opacity:1;stroke:#ffffff;stroke-width:0.691351;stroke-dasharray:none"
       x="188.5067"
       y="724.11792"
       id="text41"
       transform="scale(1.0014607,0.99854143)"><tspan
         sodipodi:role="line"
         id="tspan41"
         x="188.5067"
         y="724.11792"
         style="stroke-width:0.691351">Community</tspan></text>
  </g>
</svg>
