<?xml version="2.0" encoding="UTF-8" standalone="no"?>
<svg
   version="1.1"
   id="svg1"
   width="1024"
   height="1024"
   viewBox="0 0 1024 1024"
   xmlns="http://www.w3.org/2000/svg">
  <g
     inkscape:groupmode="layer"
     id="layer1"
     inkscape:label="Image 1"
     style="display:inline">
    <ellipse
       style="fill:none;stroke:#10b981;stroke-width:9.7096063;"
       id="path18"
       cx="-607.41229"
       cy="214.217"
       rx="276.90744"
       ry="272.39648"
       transform="rotate(-124.64099)" />
    <path
       style="fill:#10b981;fill-opacity:1;stroke:#803300;stroke-width:0;"
       d="m 345.00086,562.93406 c -3.7205,-2.52725 -14.2929,-11.3015 -23.7638,-19.7219 -6.4796,-5.761 -15.6763,-15.61745 -19.7851,-21.20463 -1.8272,-2.4845 -1.9099,-2.81171 -1.0979,-4.34151 1.6784,-3.16177 10.3503,-11.72441 16.6984,-16.488 3.5121,-2.6354 16.3781,-11.41892 28.5913,-19.51895 41.7856,-27.71315 56.3458,-35.84703 71.1854,-39.76684 5.0678,-1.33862 6.9291,-1.47471 20.1752,-1.47507 15.5868,-4.4e-4 19.0813,0.39193 31.2291,3.50637 7.3814,1.89242 14.9851,4.74761 25.8712,9.71468 9.2515,4.2212 15.4707,5.80693 37.7497,9.62528 22.3643,3.83294 26.4507,4.77695 30.2079,6.97836 7.7782,4.55734 9.1849,11.20135 3.4655,16.36843 -5.9679,5.39165 -12.2889,6.06559 -34.625,3.69167 -19.4139,-2.06333 -36.2815,-2.4596 -44.7287,-1.05081 -6.7906,1.13252 -10.0723,2.17628 -6.9789,2.21965 3.8437,0.0539 23.8764,1.40409 39.0186,2.62981 19.9024,1.61106 34.8428,1.73146 41.5564,0.33489 3.0789,-0.64048 7.1188,-2.20704 11.4461,-4.43846 4.0076,-2.06657 9.1802,-4.112 12.9071,-5.10396 12.6202,-3.35901 20.3694,-7.61594 40.6777,-22.34591 18.973,-13.76142 25.3902,-17.37477 30.857,-17.37477 5.0327,0 8.7961,3.3197 8.7961,7.75911 0,2.81391 -3.6075,7.05576 -18.5244,21.78198 -19.2516,19.00545 -33.1002,30.47189 -42.6187,35.28757 -6.755,3.41759 -38.6643,14.40931 -61.6227,21.22703 -16.2314,4.82007 -19.5076,4.52732 -61.5415,-5.49909 -28.1726,-6.72006 -35.5279,-8.14368 -45.4751,-8.80172 -25.9331,-1.71557 -38.5298,4.22407 -67.6291,31.88892 -8.6079,8.18356 -17.7963,16.26698 -18.4906,16.26698 -0.2131,0 -1.8112,-0.9671 -3.5512,-2.14911 z"
       id="path6" />
    <path
       style="fill:#10b981;stroke:#225500;stroke-width:0;fill-opacity:1"
       d="m 484.81116,314.11296 c -23.71,-26.31286 -63.2486,-42.62655 -71.3959,-79.90818 -5.7677,-27.24104 21.6611,-53.83472 48.6503,-43.76168 12.0557,0.0323 49.1739,28.81502 17.5923,18.66584 -18.8529,-19.86179 -58.0232,-6.60234 -54.1111,22.51403 9.0519,38.38079 51.9555,52.11411 74.8854,80.26006 -0.073,14.18584 -9.4965,10.97644 -15.621,2.22993 z"
       id="path8" />
    <path
       style="fill:#10b981;stroke:#225500;stroke-width:0;fill-opacity:1"
       d="m 482.33546,334.33537 c -30.1343,-32.143 -81.0563,-44.94926 -97.1382,-89.27882 -14.8388,-37.11765 14.3656,-86.24781 56.1944,-82.70832 19.8339,-1.17553 56.5403,19.07094 56.2025,32.77212 -6.4208,13.71797 -32.6175,-18.05956 -49.8119,-11.23699 -30.7828,-1.28498 -50.1592,35.90273 -36.3236,62.08138 14.461,35.41868 53.5335,49.74048 76.0498,78.38618 3.662,2.99727 0.6351,17.20594 -5.173,9.98445 z"
       id="path9" />
    <path
       style="fill:#10b981;stroke:#225500;stroke-width:0;fill-opacity:1"
       d="m 549.83416,459.18716 c -6.0656,-12.44846 -28.9887,-35.52287 -12.8055,-7.97973 -2.891,13.87864 -20.5945,-25.7405 -19.6787,4.20561 -7.1852,-6.97793 -17.2046,-36.85153 -20.1648,-9.9732 -9.8554,-6.33778 10.2792,-44.00678 -7.8713,-14.31576 -8.4891,17.61792 -22.1108,4.329 -6.5466,-7.24596 14.7855,-32.2192 9.866,-73.03017 38.0766,-98.84528 24.4515,-28.11036 60.2733,-46.01597 78.9572,-79.0108 11.2895,-28.53029 -11.4913,-67.56029 -44.3478,-62.26472 -27.3851,-4.39465 -46.9927,38.3326 -60.1822,40.03823 4.7727,-31.10074 35.5633,-55.46264 65.2936,-61.09546 36.8631,-5.60892 74.2266,28.41462 67.1708,66.28376 -4.7936,42.52766 -45.3959,65.8516 -78.4094,85.77637 -21.113,16.59949 -40.2276,40.93364 -41.597,68.23624 4.86,-12.05738 12.1813,-22.96253 9.6489,-1.86639 -5.5793,32.02253 29.5995,47.68407 37.8137,74.57967 -1.1749,0.13322 -4.2457,9.75185 -5.3575,3.47742 z"
       id="path10" />
    <path
       style="fill:#10b981;stroke:#225500;stroke-width:0;fill-opacity:1"
       d="m 528.68216,295.72384 c 18.3628,-21.52855 54.4636,-34.74261 54.2119,-67.85008 1.7725,-35.31567 -47.2927,-35.30516 -62.5742,-10.86475 -6.6578,7.22485 -25.1307,26.79739 -13.4557,4.55439 11.6488,-18.09971 32.0594,-35.08405 54.8545,-31.75656 26.9845,-2.6112 42.8894,32.90527 31.2689,55.06152 -11.9562,25.10156 -36.7349,45.76606 -63.7859,51.63214 z"
       id="path11" />
    <path
       style="fill:#10b981;stroke:#225500;stroke-width:0;fill-opacity:1"
       d="m 449.37606,576.19892 c 0,-0.16738 1.0901,-0.86046 2.4225,-1.54018 6.9659,-3.55376 10.4994,-12.5815 6.3826,-16.30714 -1.2356,-1.1182 -1.3617,-1.10666 -4.1668,0.38142 -1.5909,0.84399 -5.2195,3.83143 -8.0635,6.63875 -5.3446,5.27561 -11.5564,9.49497 -13.4318,9.1235 -0.8477,-0.16791 -0.4765,-0.87939 1.766,-3.38484 1.5616,-1.74473 4.0285,-5.06329 5.4819,-7.37458 1.4658,-2.33084 3.6994,-4.8964 5.0156,-5.76081 1.3051,-0.85716 7.6547,-4.12243 14.1102,-7.25616 12.7935,-6.21039 15.2742,-7.98489 18.4209,-13.17687 2.4894,-4.10751 4.347,-5.31452 6.8157,-4.42865 1.7125,0.61451 1.7262,0.66654 1.5825,5.98507 -0.1542,5.70031 -3.4241,23.14588 -4.5493,24.2711 -0.9405,0.94047 -2.6019,-3.2455 -2.6019,-6.55552 0,-3.24362 -0.9299,-5.05426 -2.5958,-5.05426 -2.1178,0 -7.1409,5.92867 -10.7729,12.71504 -4.3117,8.05622 -6.3508,10.53798 -9.3408,11.36837 -2.4216,0.67257 -6.4751,0.89527 -6.4751,0.35576 z"
       id="path12" />
    <path
       style="fill:#10b981;stroke:#225500;stroke-width:0;fill-opacity:1"
       d="m 524.84856,611.04834 c -0.5786,-0.69718 -0.9276,-5.6478 -1.2409,-17.59897 -0.2397,-9.14589 -0.7362,-17.3537 -1.1034,-18.23957 -0.704,-1.6983 -5.4504,-6.31994 -6.4906,-6.31994 -1.2926,0 -2.0237,2.89975 -2.9245,11.59929 -1.2044,11.6316 -2.201,15.05403 -5.3917,18.51544 -2.3951,2.59843 -5.9428,4.7108 -6.6776,3.97602 -0.1871,-0.18716 0.6759,-1.67154 1.9179,-3.29863 4.4058,-5.77195 6.0508,-15.6112 3.1465,-18.82044 -0.9581,-1.05873 -1.6431,-1.22568 -3.6874,-0.89878 -2.4006,0.38388 -2.4647,0.35067 -1.4618,-0.75752 1.5413,-1.70315 4.188,-7.99273 5.2393,-12.45086 1.1839,-5.02036 1.173,-5.24139 -0.3324,-6.7468 -1.4974,-1.49744 -3.9686,-1.65071 -5.2912,-0.32816 -0.5174,0.5174 -2.2593,4.89698 -3.8708,9.73239 -3.2112,9.63528 -6.202,16.31818 -9.3615,20.91801 -2.3957,3.48796 -12.4562,14.08916 -13.3704,14.08916 -1.0032,0 0.044,-4.88476 1.8786,-8.7626 0.916,-1.93624 3.6094,-5.61708 5.9855,-8.17964 4.6897,-5.05784 6.6821,-9.24893 4.9531,-10.41926 -1.4864,-1.00617 -6.8358,-0.0881 -10.9865,1.88544 -2.1339,1.0146 -6.7348,4.02004 -10.2242,6.67875 -3.4895,2.65872 -6.5587,4.83525 -6.8204,4.83674 -2.0453,0.0116 2.5275,-7.4926 7.6832,-12.60859 3.5449,-3.5175 5.2115,-4.61479 10.2361,-6.73939 10.0137,-4.2342 12.4771,-7.59241 15.9098,-21.68928 2.046,-8.40219 4.1289,-14.15706 5.1239,-14.15706 1.4309,0 12.1772,11.34693 18.8027,19.85356 9.4663,12.15391 14.4969,17.54112 18.3097,19.60764 1.6952,0.91874 7.021,2.8461 11.8352,4.28302 13.3603,3.98769 18.3448,6.63231 17.3561,9.20861 -0.5369,1.39932 -1.3324,1.26072 -8.7068,-1.51717 -8.6965,-3.27589 -14.1309,-4.23069 -18.3367,-3.22173 -3.8068,0.91323 -6.6064,3.75926 -7.6411,7.76783 -0.384,1.4876 -1.2451,4.32618 -1.9136,6.30795 -0.9731,2.88461 -1.1382,4.60622 -0.8277,8.63245 0.3983,5.16464 -0.1578,6.73999 -1.7164,4.86209 z"
       id="path13" />
    <path
       style="fill:#10b981;stroke:#225500;stroke-width:0;fill-opacity:1"
       d="m 531.79246,564.96752 c -0.4075,-0.76151 -4.5226,-5.28077 -9.1446,-10.04281 -8.616,-8.87696 -9.8977,-10.75028 -8.504,-12.42955 2.3386,-2.81783 2.6994,-2.59651 10.6929,6.55914 8.5513,9.79453 10.6065,13.0138 9.9578,15.59809 -0.5157,2.05485 -1.9883,2.20942 -3.0021,0.31513 z"
       id="path14" />
    <path
       style="fill:#10b981;stroke:#225500;stroke-width:0;fill-opacity:1"
       d="m 583.36816,574.55661 c -8.9917,-8.12329 -22.8983,-19.42323 -25.3569,-20.60389 -1.1418,-0.54834 -3.6384,-1.32469 -5.548,-1.72524 -6.6581,-1.39655 -6.1934,1.64731 1.4533,9.51782 2.6312,2.7082 5.8054,6.03203 7.0538,7.3863 l 2.2698,2.4623 -2.2108,-0.44246 c -1.216,-0.24335 -3.959,-1.28001 -6.0955,-2.30369 -6.0562,-2.90175 -6.5694,-2.6623 -7.1665,3.34381 -0.2029,2.04137 -0.6545,3.74783 -1.0034,3.79214 -1.4528,0.18444 -2.9626,-4.04645 -3.5105,-9.83713 -0.7107,-7.51181 -2.309,-11.78721 -6.2085,-16.60739 -5.0871,-6.28823 -5.8299,-8.74662 -2.9713,-9.83347 2.4917,-0.94734 7.2998,0.28252 16.437,4.20444 17.593,7.55133 20.7321,9.68916 29.2262,19.90413 5.2482,6.31148 11.1212,14.57013 11.1212,15.63864 0,1.59416 -1.1057,0.87133 -7.4899,-4.89631 z"
       id="path15" />
    <path
       style="fill:#10b981;stroke:#225500;stroke-width:0;fill-opacity:1"
       d="m 577.65636,550.44997 c -1.4442,-2.31251 -5.826,-4.89164 -12.3306,-7.25779 -7.2318,-2.63069 -10.3094,-4.27109 -10.8999,-5.80976 -0.523,-1.36291 1.2676,-4.02168 2.7085,-4.02168 1.5177,0 11.5762,4.92573 16.8159,8.23492 3.4231,2.16188 4.3026,3.06746 4.8327,4.97597 1.1424,4.11317 0.4686,6.43268 -1.1266,3.87834 z"
       id="path16" />
    <path
       style="fill:#10b981;stroke:#225500;stroke-width:0;fill-opacity:1"
       d="m 438.18156,555.95398 c 0.2293,-2.55414 1.15,-5.43406 2.91,-9.10182 3.0022,-6.2569 3.1986,-7.42122 1.147,-6.80066 -2.7953,0.84548 -7.4423,3.67163 -11.042,6.71532 -2.0097,1.69927 -3.8735,3.08959 -4.1416,3.08959 -1.4789,0 3.1137,-8.04105 6.0802,-10.6457 2.5059,-2.2002 5.1069,-2.854 16.5581,-4.1622 8.1196,-0.92759 10.505,-1.72441 14.7052,-4.91216 3.0258,-2.2964 5.2558,-2.21524 6.3708,0.23186 0.8679,1.9049 -0.2871,4.80601 -2.6549,6.66854 -1.8879,1.48502 -7.9783,3.93738 -9.7785,3.93738 -0.629,0 -2.8871,0.87117 -5.0179,1.93593 -4.2872,2.14237 -8.9755,6.82551 -12.9877,12.97361 l -2.4842,3.80669 z"
       id="path17" />
  </g>
</svg>
